<svg xmlns="http://www.w3.org/2000/svg" width="512" height="512" viewBox="0 0 512 512" fill="none">
  <!-- Background circle -->
  <circle cx="256" cy="256" r="240" fill="#007AFF" stroke="#0056CC" stroke-width="8"/>
  
  <!-- Check document icon -->
  <g transform="translate(140, 128)" style="&#10;">
    <!-- Document -->
    <rect x="0" y="0" width="228" height="260" rx="8" fill="white"/>
    <rect x="16" y="20" width="196" height="4" rx="2" fill="#007AFF"/>
    <rect x="16" y="32" width="180" height="4" rx="2" fill="#007AFF"/>
    <rect x="16" y="44" width="188" height="4" rx="2" fill="#007AFF"/>
    <rect x="16" y="56" width="172" height="4" rx="2" fill="#007AFF"/>
    <rect x="16" y="68" width="196" height="4" rx="2" fill="#007AFF"/>
    <rect x="16" y="80" width="164" height="4" rx="2" fill="#007AFF"/>
    <rect x="16" y="92" width="188" height="4" rx="2" fill="#007AFF"/>
    <rect x="16" y="104" width="180" height="4" rx="2" fill="#007AFF"/>
    <rect x="16" y="116" width="172" height="4" rx="2" fill="#007AFF"/>
    <rect x="16" y="128" width="196" height="4" rx="2" fill="#007AFF"/>
    <rect x="16" y="140" width="172" height="4" rx="2" fill="#007AFF"/>
    <rect x="16" y="152" width="196" height="4" rx="2" fill="#007AFF"/>
    <rect x="16" y="164" width="164" height="4" rx="2" fill="#007AFF"/>
    <rect x="16" y="176" width="188" height="4" rx="2" fill="#007AFF"/>
    <rect x="16" y="188" width="180" height="4" rx="2" fill="#007AFF"/>
    <rect x="16" y="202" width="172" height="4" rx="2" fill="#007AFF"/>
    <rect x="16" y="214" width="196" height="4" rx="2" fill="#007AFF"/>
    <rect x="16" y="226" width="196" height="4" rx="2" fill="#007AFF"/>
    <rect x="16" y="238" width="196" height="4" rx="2" fill="#007AFF"/>
    <rect x="16" y="250" width="196" height="4" rx="2" fill="#007AFF"/>
    <rect x="16" y="262" width="196" height="4" rx="2" fill="#007AFF"/>
    <rect x="16" y="274" width="196" height="4" rx="2" fill="#007AFF"/>
    
    <!-- Checkmark -->
    <path d="M96 50 L112 73 L167 24" stroke="#34C759" stroke-width="6" stroke-linecap="round" stroke-linejoin="round" fill="none" transform="translate(80, 200)"/>
  </g>
  
  <!-- Dollar sign -->
  <g transform="translate(150, 370)" stroke="#0056CC" stroke-width="2">
    <text x="0" y="0" text-anchor="middle" dominant-baseline="middle" font-family="Arial, sans-serif" font-size="120" font-weight="bold" fill="white">$</text>
  </g>
</svg>